# xmcd
#
# Track frame offsets:
#	150
#	12110
#	27073
#	46333
#	63188
#	81323
#
# Disc length: 1285 seconds
#
# Revision: 0
# Processed by: cddbd v1.5.2PL0 Copyright (c) Steve Scherf et al.
# Submitted via: EasyCDDAExtractor 2010.4.0.0
#
DISCID=3c050306
DTITLE=Rockbottom James and Quadrajet
DYEAR=2011
DGENRE=Blues
TTITLE0=Motorbiking 
TTITLE1=Line Em Up
TTITLE2=Crazy Mixed Up World
TTITLE3=Self Made Man
TTITLE4=Quadrajet !
TTITLE5=You Make Me Think
EXTD=
EXTT0=
EXTT1=
EXTT2=
EXTT3=
EXTT4=
EXTT5=
PLAYORDER=
